<svg width="92" height="68" viewBox="0 0 92 68" fill="none" xmlns="http://www.w3.org/2000/svg">
<path d="M54.5 4C54.5 2.067 56.067 0.5 58 0.5H62C63.933 0.5 65.5 2.067 65.5 4V11.5H54.5V4Z" fill="#096FFF" stroke="#075ACF"/>
<path d="M54.5 56.5H65.5V64C65.5 65.933 63.933 67.5 62 67.5H58C56.067 67.5 54.5 65.933 54.5 64V56.5Z" fill="#096FFF" stroke="#075ACF"/>
<path d="M88 28.5C89.933 28.5 91.5 30.067 91.5 32V36C91.5 37.933 89.933 39.5 88 39.5H80.5V28.5H88Z" fill="#096FFF" stroke="#075ACF"/>
<path d="M11.5 28.5V39.5H4C2.067 39.5 0.5 37.933 0.5 36V32C0.5 30.067 2.067 28.5 4 28.5H11.5Z" fill="#096FFF" stroke="#075ACF"/>
<path d="M26.5 4C26.5 2.067 28.067 0.5 30 0.5H34C35.933 0.5 37.5 2.067 37.5 4V11.5H26.5V4Z" fill="#096FFF" stroke="#075ACF"/>
<path d="M26.5 56.5H37.5V64C37.5 65.933 35.933 67.5 34 67.5H30C28.067 67.5 26.5 65.933 26.5 64V56.5Z" fill="#096FFF" stroke="#075ACF"/>
<rect x="16.5" y="16.5" width="59" height="35" rx="3.5" fill="#096FFF" stroke="#075ACF"/>
<path fill-rule="evenodd" clip-rule="evenodd" d="M44.7274 37.9151C45.0853 38.0451 45.4433 38.1141 45.8012 38.1191C46.3893 38.1251 46.9007 37.9971 47.3353 37.7361C47.7728 37.4721 48.1123 37.1161 48.3538 36.6701C48.5953 36.2221 48.716 35.7271 48.716 35.1881C48.716 34.6251 48.591 34.1261 48.341 33.6921C48.091 33.2541 47.7586 32.9121 47.3439 32.6651C46.9291 32.4151 46.4717 32.2901 45.9717 32.2901C45.6734 32.2901 45.3907 32.3371 45.1237 32.4301C44.8566 32.5241 44.6123 32.6581 44.3907 32.8311C44.172 33.0011 43.9831 33.2071 43.824 33.4491H43.7558C43.7586 32.3861 43.9532 31.5611 44.3396 30.9731C44.7288 30.3851 45.2615 30.0911 45.9376 30.0911C46.3978 30.0911 46.7671 30.2201 47.0456 30.4791C47.324 30.7371 47.5115 31.0621 47.6081 31.4551H48.6478C48.5768 31.0031 48.4206 30.6041 48.1791 30.2571C47.9376 29.9111 47.6251 29.6411 47.2416 29.4471C46.8609 29.2511 46.4262 29.1531 45.9376 29.1531C45.4461 29.1531 45.0044 29.2601 44.6123 29.4731C44.2231 29.6861 43.8907 29.9991 43.6152 30.4111C43.3396 30.8201 43.1294 31.3241 42.9845 31.9231C42.8396 32.5201 42.7671 33.2051 42.7671 33.9771C42.7671 34.7841 42.8566 35.4551 43.0356 35.9891C43.2146 36.5201 43.4518 36.9421 43.7473 37.2541C44.0427 37.5641 44.3694 37.7841 44.7274 37.9151ZM46.7643 36.9131C46.4802 37.0921 46.1592 37.1821 45.8012 37.1821C45.4376 37.1821 45.1123 37.0891 44.8254 36.9051C44.5413 36.7201 44.3169 36.4771 44.1521 36.1761C43.9902 35.8751 43.9092 35.5511 43.9092 35.2051C43.9092 34.9431 43.9589 34.6951 44.0583 34.4591C44.1578 34.2201 44.2941 34.0091 44.4674 33.8241C44.6436 33.6391 44.8481 33.4941 45.0811 33.3891C45.314 33.2811 45.5654 33.2271 45.8353 33.2271C46.1933 33.2271 46.5115 33.3151 46.7899 33.4911C47.0711 33.6681 47.2913 33.9051 47.4504 34.2031C47.6123 34.4991 47.6933 34.8271 47.6933 35.1881C47.6933 35.5571 47.6095 35.8921 47.4419 36.1931C47.2771 36.4941 47.0512 36.7341 46.7643 36.9131Z" fill="white"/>
</svg>
