<svg width="92" height="92" viewBox="0 0 92 92" fill="none" xmlns="http://www.w3.org/2000/svg">
<path d="M40 4C40 1.791 41.791 0 44 0H48C50.209 0 52 1.791 52 4V12H40V4Z" fill="#076EFF"/>
<path d="M40 80H52V88C52 90.209 50.209 92 48 92H44C41.791 92 40 90.209 40 88V80Z" fill="#076EFF"/>
<path d="M71.1719 11.828C72.7339 10.266 75.2659 10.266 76.8279 11.828L79.6569 14.657C81.2189 16.219 81.2189 18.752 79.6569 20.314L73.9999 25.971L65.5149 17.485L71.1719 11.828Z" fill="#076EFF"/>
<path d="M17.431 65.5679L25.917 74.0539L20.26 79.7099C18.698 81.2729 16.165 81.2729 14.603 79.7099L11.775 76.8819C10.213 75.3199 10.213 72.7869 11.775 71.2249L17.431 65.5679Z" fill="#076EFF"/>
<path d="M4 52C1.791 52 0 50.209 0 48V44C0 41.791 1.791 40 4 40H12V52H4Z" fill="#076EFF"/>
<path d="M80 52V40H88C90.209 40 92 41.791 92 44V48C92 50.209 90.209 52 88 52H80Z" fill="#076EFF"/>
<path d="M11.828 19.8279C10.266 18.2659 10.266 15.7339 11.828 14.1719L14.657 11.3429C16.219 9.78089 18.752 9.78089 20.314 11.3429L25.971 16.9999L17.485 25.4849L11.828 19.8279Z" fill="#076EFF"/>
<path d="M65.5691 73.568L74.0541 65.083L79.7111 70.74C81.2731 72.302 81.2731 74.835 79.7111 76.397L76.8821 79.225C75.3201 80.787 72.7871 80.787 71.2251 79.225L65.5691 73.568Z" fill="#076EFF"/>
<circle cx="46" cy="46" r="30" fill="#076EFF"/>
</svg>
