<svg width="83" height="58" viewBox="0 0 83 58" fill="none" xmlns="http://www.w3.org/2000/svg">
<rect x="12" width="10" height="10" rx="3" fill="#0E6FF7"/>
<rect x="24" width="10" height="10" rx="3" fill="#0E6FF7"/>
<rect x="36" width="10" height="10" rx="3" fill="#0E6FF7"/>
<rect x="48" width="10" height="10" rx="3" fill="#0E6FF7"/>
<rect x="60" width="10" height="10" rx="3" fill="#0E6FF7"/>
<rect x="12" y="13" width="10" height="10" rx="3" fill="#0E6FF7"/>
<rect x="24" y="13" width="10" height="10" rx="3" fill="#0E6FF7"/>
<rect x="36" y="13" width="10" height="10" rx="3" fill="#0E6FF7"/>
<path d="M48 16C48 14.3431 49.3431 13 51 13H55C56.6569 13 58 14.3431 58 16V20C58 21.6569 56.6569 23 55 23H51C49.3431 23 48 21.6569 48 20V16Z" fill="#0E6FF7"/>
<path d="M60.5 16C60.5 14.3431 61.8431 13 63.5 13H67.5C69.1569 13 70.5 14.3431 70.5 16V20C70.5 21.6569 69.1569 23 67.5 23H63.5C61.8431 23 60.5 21.6569 60.5 20V16Z" fill="#0E6FF7"/>
<rect x="12" y="26" width="10" height="10" rx="3" fill="#0E6FF7"/>
<rect x="24" y="26" width="10" height="10" rx="3" fill="#0E6FF7"/>
<rect x="48" y="26" width="10" height="10" rx="3" fill="#0E6FF7"/>
<rect x="60" y="26" width="10" height="10" rx="3" fill="#0E6FF7"/>
<rect x="36" y="26" width="10" height="10" rx="3" fill="#0E6FF7"/>
<rect x="12" y="38" width="10" height="10" rx="3" fill="#0E6FF7"/>
<rect x="24" y="38" width="10" height="10" rx="3" fill="#0E6FF7"/>
<rect x="36" y="38" width="10" height="10" rx="3" fill="#0E6FF7"/>
<rect x="48" y="38" width="10" height="10" rx="3" fill="#0E6FF7"/>
<rect x="60" y="38" width="10" height="10" rx="3" fill="#0E6FF7"/>
<rect y="54" width="83" height="4" fill="#0E6FF7"/>
<rect x="73" y="13" width="10" height="10" rx="3" fill="#0E6FF7"/>
<rect x="73" width="10" height="10" rx="3" fill="#0E6FF7"/>
<rect width="10" height="10" rx="3" fill="#0E6FF7"/>
<rect y="13" width="10" height="10" rx="3" fill="#0E6FF7"/>
</svg>
